<svg width="405" height="411" viewBox="0 0 405 411" fill="none" xmlns="http://www.w3.org/2000/svg">
<g clip-path="url(#clip0)">
<path d="M339.531 181.9L262.803 150.965L260.489 150.031L259.551 152.344L228.046 230.069L150.52 198.811L148.205 197.878L147.268 200.19L115.762 277.915L87.664 266.586L131.207 159.167L208.733 190.425L211.047 191.358L211.985 189.045L243.49 111.321L350.63 154.52L339.531 181.9Z" fill="#19057A" stroke="#19057A" stroke-width="5"/>
<path d="M332.915 159.837L256.187 128.901L253.873 127.968L252.935 130.281L221.43 208.005L143.903 176.748L141.589 175.815L140.652 178.127L109.146 255.852L81.0477 244.523L124.591 137.104L202.117 168.362L204.431 169.295L205.368 166.982L236.874 89.2576L344.014 132.456L332.915 159.837Z" fill="white" stroke="#19057A" stroke-width="5"/>
</g>
<defs>
<clipPath id="clip0">
<rect width="272.87" height="308.603" fill="white" transform="translate(218.482 410.872) rotate(-142.988)"/>
</clipPath>
</defs>
</svg>
